<svg width="354" height="105" viewBox="0 0 354 105" fill="none" xmlns="http://www.w3.org/2000/svg">
<g filter="url(#filter0_d)">
<rect x="15" y="15" width="324" height="75" rx="25" fill="#F0CFCF"/>
</g>
<path d="M74.008 53.92C74.008 51.856 74.392 50.044 75.16 48.484C75.952 46.924 77.02 45.724 78.364 44.884C79.708 44.044 81.208 43.624 82.864 43.624C84.28 43.624 85.516 43.912 86.572 44.488C87.652 45.064 88.48 45.82 89.056 46.756V43.912H95.212V64H89.056V61.156C88.456 62.092 87.616 62.848 86.536 63.424C85.48 64 84.244 64.288 82.828 64.288C81.196 64.288 79.708 63.868 78.364 63.028C77.02 62.164 75.952 60.952 75.16 59.392C74.392 57.808 74.008 55.984 74.008 53.92ZM89.056 53.956C89.056 52.42 88.624 51.208 87.76 50.32C86.92 49.432 85.888 48.988 84.664 48.988C83.44 48.988 82.396 49.432 81.532 50.32C80.692 51.184 80.272 52.384 80.272 53.92C80.272 55.456 80.692 56.68 81.532 57.592C82.396 58.48 83.44 58.924 84.664 58.924C85.888 58.924 86.92 58.48 87.76 57.592C88.624 56.704 89.056 55.492 89.056 53.956ZM128.502 43.912L123.066 64H116.262L113.094 50.968L109.818 64H103.05L97.5776 43.912H103.734L106.578 58.276L109.962 43.912H116.478L119.898 58.204L122.706 43.912H128.502ZM139.021 64.288C137.269 64.288 135.709 63.988 134.341 63.388C132.973 62.788 131.893 61.972 131.101 60.94C130.309 59.884 129.865 58.708 129.769 57.412H135.853C135.925 58.108 136.249 58.672 136.825 59.104C137.401 59.536 138.109 59.752 138.949 59.752C139.717 59.752 140.305 59.608 140.713 59.32C141.145 59.008 141.361 58.612 141.361 58.132C141.361 57.556 141.061 57.136 140.461 56.872C139.861 56.584 138.889 56.272 137.545 55.936C136.105 55.6 134.905 55.252 133.945 54.892C132.985 54.508 132.157 53.92 131.461 53.128C130.765 52.312 130.417 51.22 130.417 49.852C130.417 48.7 130.729 47.656 131.353 46.72C132.001 45.76 132.937 45.004 134.161 44.452C135.409 43.9 136.885 43.624 138.589 43.624C141.109 43.624 143.089 44.248 144.529 45.496C145.993 46.744 146.833 48.4 147.049 50.464H141.361C141.265 49.768 140.953 49.216 140.425 48.808C139.921 48.4 139.249 48.196 138.409 48.196C137.689 48.196 137.137 48.34 136.753 48.628C136.369 48.892 136.177 49.264 136.177 49.744C136.177 50.32 136.477 50.752 137.077 51.04C137.701 51.328 138.661 51.616 139.957 51.904C141.445 52.288 142.657 52.672 143.593 53.056C144.529 53.416 145.345 54.016 146.041 54.856C146.761 55.672 147.133 56.776 147.157 58.168C147.157 59.344 146.821 60.4 146.149 61.336C145.501 62.248 144.553 62.968 143.305 63.496C142.081 64.024 140.653 64.288 139.021 64.288Z" fill="black"/>
<path d="M167.699 46.72C167.243 45.88 166.583 45.244 165.719 44.812C164.879 44.356 163.883 44.128 162.731 44.128C160.739 44.128 159.143 44.788 157.943 46.108C156.743 47.404 156.143 49.144 156.143 51.328C156.143 53.656 156.767 55.48 158.015 56.8C159.287 58.096 161.027 58.744 163.235 58.744C164.747 58.744 166.019 58.36 167.051 57.592C168.107 56.824 168.875 55.72 169.355 54.28H161.543V49.744H174.935V55.468C174.479 57.004 173.699 58.432 172.595 59.752C171.515 61.072 170.135 62.14 168.455 62.956C166.775 63.772 164.879 64.18 162.767 64.18C160.271 64.18 158.039 63.64 156.071 62.56C154.127 61.456 152.603 59.932 151.499 57.988C150.419 56.044 149.879 53.824 149.879 51.328C149.879 48.832 150.419 46.612 151.499 44.668C152.603 42.7 154.127 41.176 156.071 40.096C158.015 38.992 160.235 38.44 162.731 38.44C165.755 38.44 168.299 39.172 170.363 40.636C172.451 42.1 173.831 44.128 174.503 46.72H167.699ZM177.121 53.92C177.121 51.856 177.505 50.044 178.273 48.484C179.065 46.924 180.133 45.724 181.477 44.884C182.821 44.044 184.321 43.624 185.977 43.624C187.393 43.624 188.629 43.912 189.685 44.488C190.765 45.064 191.593 45.82 192.169 46.756V43.912H198.325V64H192.169V61.156C191.569 62.092 190.729 62.848 189.649 63.424C188.593 64 187.357 64.288 185.941 64.288C184.309 64.288 182.821 63.868 181.477 63.028C180.133 62.164 179.065 60.952 178.273 59.392C177.505 57.808 177.121 55.984 177.121 53.92ZM192.169 53.956C192.169 52.42 191.737 51.208 190.873 50.32C190.033 49.432 189.001 48.988 187.777 48.988C186.553 48.988 185.509 49.432 184.645 50.32C183.805 51.184 183.385 52.384 183.385 53.92C183.385 55.456 183.805 56.68 184.645 57.592C185.509 58.48 186.553 58.924 187.777 58.924C189.001 58.924 190.033 58.48 190.873 57.592C191.737 56.704 192.169 55.492 192.169 53.956ZM228.411 43.696C230.907 43.696 232.887 44.452 234.351 45.964C235.839 47.476 236.583 49.576 236.583 52.264V64H230.463V53.092C230.463 51.796 230.115 50.8 229.419 50.104C228.747 49.384 227.811 49.024 226.611 49.024C225.411 49.024 224.463 49.384 223.767 50.104C223.095 50.8 222.759 51.796 222.759 53.092V64H216.639V53.092C216.639 51.796 216.291 50.8 215.595 50.104C214.923 49.384 213.987 49.024 212.787 49.024C211.587 49.024 210.639 49.384 209.943 50.104C209.271 50.8 208.935 51.796 208.935 53.092V64H202.779V43.912H208.935V46.432C209.559 45.592 210.375 44.932 211.383 44.452C212.391 43.948 213.531 43.696 214.803 43.696C216.315 43.696 217.659 44.02 218.835 44.668C220.035 45.316 220.971 46.24 221.643 47.44C222.339 46.336 223.287 45.436 224.487 44.74C225.687 44.044 226.995 43.696 228.411 43.696ZM259.824 53.632C259.824 54.208 259.788 54.808 259.716 55.432H245.784C245.88 56.68 246.276 57.64 246.972 58.312C247.692 58.96 248.568 59.284 249.6 59.284C251.136 59.284 252.204 58.636 252.804 57.34H259.356C259.02 58.66 258.408 59.848 257.52 60.904C256.656 61.96 255.564 62.788 254.244 63.388C252.924 63.988 251.448 64.288 249.816 64.288C247.848 64.288 246.096 63.868 244.56 63.028C243.024 62.188 241.824 60.988 240.96 59.428C240.096 57.868 239.664 56.044 239.664 53.956C239.664 51.868 240.084 50.044 240.924 48.484C241.788 46.924 242.988 45.724 244.524 44.884C246.06 44.044 247.824 43.624 249.816 43.624C251.76 43.624 253.488 44.032 255 44.848C256.512 45.664 257.688 46.828 258.528 48.34C259.392 49.852 259.824 51.616 259.824 53.632ZM253.524 52.012C253.524 50.956 253.164 50.116 252.444 49.492C251.724 48.868 250.824 48.556 249.744 48.556C248.712 48.556 247.836 48.856 247.116 49.456C246.42 50.056 245.988 50.908 245.82 52.012H253.524ZM271.244 64.288C269.492 64.288 267.932 63.988 266.564 63.388C265.196 62.788 264.116 61.972 263.324 60.94C262.532 59.884 262.088 58.708 261.992 57.412H268.076C268.148 58.108 268.472 58.672 269.048 59.104C269.624 59.536 270.332 59.752 271.172 59.752C271.94 59.752 272.528 59.608 272.936 59.32C273.368 59.008 273.584 58.612 273.584 58.132C273.584 57.556 273.284 57.136 272.684 56.872C272.084 56.584 271.112 56.272 269.768 55.936C268.328 55.6 267.128 55.252 266.168 54.892C265.208 54.508 264.38 53.92 263.684 53.128C262.988 52.312 262.64 51.22 262.64 49.852C262.64 48.7 262.952 47.656 263.576 46.72C264.224 45.76 265.16 45.004 266.384 44.452C267.632 43.9 269.108 43.624 270.812 43.624C273.332 43.624 275.312 44.248 276.752 45.496C278.216 46.744 279.056 48.4 279.272 50.464H273.584C273.488 49.768 273.176 49.216 272.648 48.808C272.144 48.4 271.472 48.196 270.632 48.196C269.912 48.196 269.36 48.34 268.976 48.628C268.592 48.892 268.4 49.264 268.4 49.744C268.4 50.32 268.7 50.752 269.3 51.04C269.924 51.328 270.884 51.616 272.18 51.904C273.668 52.288 274.88 52.672 275.816 53.056C276.752 53.416 277.568 54.016 278.264 54.856C278.984 55.672 279.356 56.776 279.38 58.168C279.38 59.344 279.044 60.4 278.372 61.336C277.724 62.248 276.776 62.968 275.528 63.496C274.304 64.024 272.876 64.288 271.244 64.288Z" fill="#FF0000"/>
<defs>
<filter id="filter0_d" x="0" y="0" width="354" height="105" filterUnits="userSpaceOnUse" color-interpolation-filters="sRGB">
<feFlood flood-opacity="0" result="BackgroundImageFix"/>
<feColorMatrix in="SourceAlpha" type="matrix" values="0 0 0 0 0 0 0 0 0 0 0 0 0 0 0 0 0 0 127 0"/>
<feOffset/>
<feGaussianBlur stdDeviation="7.5"/>
<feColorMatrix type="matrix" values="0 0 0 0 1 0 0 0 0 1 0 0 0 0 1 0 0 0 0.25 0"/>
<feBlend mode="normal" in2="BackgroundImageFix" result="effect1_dropShadow"/>
<feBlend mode="normal" in="SourceGraphic" in2="effect1_dropShadow" result="shape"/>
</filter>
</defs>
</svg>
